<mxfile host="app.diagrams.net" modified="2024-07-05T03:03:04.284Z" agent="Mozilla/5.0 (Windows NT 10.0; Win64; x64) AppleWebKit/537.36 (KHTML, like Gecko) Chrome/126.0.0.0 Safari/537.36" etag="54K5ssNqyRYbZ1w8wBoo" version="24.6.4" type="device">
  <diagram name="Page-1" id="sO8Dl4wqIRh0H4yBMdee">
    <mxGraphModel dx="999" dy="1116" grid="1" gridSize="10" guides="1" tooltips="1" connect="1" arrows="1" fold="1" page="1" pageScale="1" pageWidth="850" pageHeight="1100" math="0" shadow="0">
      <root>
        <mxCell id="0" />
        <mxCell id="1" parent="0" />
        <mxCell id="8F-MAiMv_yFmY44MnB7F-2" style="edgeStyle=orthogonalEdgeStyle;rounded=0;orthogonalLoop=1;jettySize=auto;html=1;" edge="1" parent="1" source="8F-MAiMv_yFmY44MnB7F-1">
          <mxGeometry relative="1" as="geometry">
            <mxPoint x="190" y="370" as="targetPoint" />
          </mxGeometry>
        </mxCell>
        <mxCell id="8F-MAiMv_yFmY44MnB7F-3" style="edgeStyle=orthogonalEdgeStyle;rounded=0;orthogonalLoop=1;jettySize=auto;html=1;" edge="1" parent="1" source="8F-MAiMv_yFmY44MnB7F-1">
          <mxGeometry relative="1" as="geometry">
            <mxPoint x="710" y="370" as="targetPoint" />
          </mxGeometry>
        </mxCell>
        <mxCell id="8F-MAiMv_yFmY44MnB7F-1" value="ID" style="rounded=0;whiteSpace=wrap;html=1;" vertex="1" parent="1">
          <mxGeometry x="370" y="110" width="120" height="60" as="geometry" />
        </mxCell>
        <mxCell id="8F-MAiMv_yFmY44MnB7F-7" style="edgeStyle=orthogonalEdgeStyle;rounded=0;orthogonalLoop=1;jettySize=auto;html=1;entryX=0;entryY=0.5;entryDx=0;entryDy=0;" edge="1" parent="1" source="8F-MAiMv_yFmY44MnB7F-4" target="8F-MAiMv_yFmY44MnB7F-10">
          <mxGeometry relative="1" as="geometry">
            <mxPoint x="190" y="620" as="targetPoint" />
          </mxGeometry>
        </mxCell>
        <mxCell id="8F-MAiMv_yFmY44MnB7F-4" value="R (8 BANDS)" style="rounded=0;whiteSpace=wrap;html=1;" vertex="1" parent="1">
          <mxGeometry x="130" y="370" width="120" height="60" as="geometry" />
        </mxCell>
        <mxCell id="8F-MAiMv_yFmY44MnB7F-9" value="" style="edgeStyle=orthogonalEdgeStyle;rounded=0;orthogonalLoop=1;jettySize=auto;html=1;entryX=1;entryY=0.5;entryDx=0;entryDy=0;" edge="1" parent="1" source="8F-MAiMv_yFmY44MnB7F-6" target="8F-MAiMv_yFmY44MnB7F-10">
          <mxGeometry relative="1" as="geometry">
            <mxPoint x="710" y="640" as="targetPoint" />
          </mxGeometry>
        </mxCell>
        <mxCell id="8F-MAiMv_yFmY44MnB7F-6" value="G (BLENDING)" style="rounded=0;whiteSpace=wrap;html=1;" vertex="1" parent="1">
          <mxGeometry x="650" y="370" width="120" height="60" as="geometry" />
        </mxCell>
        <mxCell id="8F-MAiMv_yFmY44MnB7F-12" value="" style="edgeStyle=orthogonalEdgeStyle;rounded=0;orthogonalLoop=1;jettySize=auto;html=1;" edge="1" parent="1" source="8F-MAiMv_yFmY44MnB7F-10" target="8F-MAiMv_yFmY44MnB7F-13">
          <mxGeometry relative="1" as="geometry">
            <mxPoint x="455" y="810" as="targetPoint" />
          </mxGeometry>
        </mxCell>
        <mxCell id="8F-MAiMv_yFmY44MnB7F-15" style="edgeStyle=orthogonalEdgeStyle;rounded=0;orthogonalLoop=1;jettySize=auto;html=1;entryX=0.5;entryY=0;entryDx=0;entryDy=0;" edge="1" parent="1" source="8F-MAiMv_yFmY44MnB7F-10" target="8F-MAiMv_yFmY44MnB7F-14">
          <mxGeometry relative="1" as="geometry" />
        </mxCell>
        <mxCell id="8F-MAiMv_yFmY44MnB7F-10" value="create up to 8 images where&lt;br&gt;BAND = ALPHA&lt;br&gt;BLENDING = RGB" style="rhombus;whiteSpace=wrap;html=1;" vertex="1" parent="1">
          <mxGeometry x="380" y="540" width="150" height="190" as="geometry" />
        </mxCell>
        <mxCell id="8F-MAiMv_yFmY44MnB7F-17" value="" style="edgeStyle=orthogonalEdgeStyle;rounded=0;orthogonalLoop=1;jettySize=auto;html=1;" edge="1" parent="1" source="8F-MAiMv_yFmY44MnB7F-13" target="8F-MAiMv_yFmY44MnB7F-16">
          <mxGeometry relative="1" as="geometry" />
        </mxCell>
        <mxCell id="8F-MAiMv_yFmY44MnB7F-13" value="BAND+BLEND" style="rounded=0;whiteSpace=wrap;html=1;" vertex="1" parent="1">
          <mxGeometry x="280" y="780" width="120" height="60" as="geometry" />
        </mxCell>
        <mxCell id="8F-MAiMv_yFmY44MnB7F-19" value="" style="edgeStyle=orthogonalEdgeStyle;rounded=0;orthogonalLoop=1;jettySize=auto;html=1;" edge="1" parent="1" source="8F-MAiMv_yFmY44MnB7F-14" target="8F-MAiMv_yFmY44MnB7F-18">
          <mxGeometry relative="1" as="geometry" />
        </mxCell>
        <mxCell id="8F-MAiMv_yFmY44MnB7F-14" value="BAND" style="rounded=0;whiteSpace=wrap;html=1;" vertex="1" parent="1">
          <mxGeometry x="530" y="780" width="120" height="60" as="geometry" />
        </mxCell>
        <mxCell id="8F-MAiMv_yFmY44MnB7F-25" style="edgeStyle=orthogonalEdgeStyle;rounded=0;orthogonalLoop=1;jettySize=auto;html=1;entryX=0.5;entryY=0;entryDx=0;entryDy=0;" edge="1" parent="1" source="8F-MAiMv_yFmY44MnB7F-16" target="8F-MAiMv_yFmY44MnB7F-24">
          <mxGeometry relative="1" as="geometry" />
        </mxCell>
        <mxCell id="8F-MAiMv_yFmY44MnB7F-16" value="Pad islands&lt;br&gt;By 32 pixels" style="rhombus;whiteSpace=wrap;html=1;rounded=0;" vertex="1" parent="1">
          <mxGeometry x="280" y="890" width="120" height="130" as="geometry" />
        </mxCell>
        <mxCell id="8F-MAiMv_yFmY44MnB7F-28" value="" style="edgeStyle=orthogonalEdgeStyle;rounded=0;orthogonalLoop=1;jettySize=auto;html=1;" edge="1" parent="1" source="8F-MAiMv_yFmY44MnB7F-18" target="8F-MAiMv_yFmY44MnB7F-27">
          <mxGeometry relative="1" as="geometry" />
        </mxCell>
        <mxCell id="8F-MAiMv_yFmY44MnB7F-18" value="Upscale XBR no blend" style="rhombus;whiteSpace=wrap;html=1;rounded=0;" vertex="1" parent="1">
          <mxGeometry x="550" y="910" width="80" height="80" as="geometry" />
        </mxCell>
        <mxCell id="8F-MAiMv_yFmY44MnB7F-23" value="" style="edgeStyle=orthogonalEdgeStyle;rounded=0;orthogonalLoop=1;jettySize=auto;html=1;" edge="1" parent="1" source="8F-MAiMv_yFmY44MnB7F-20" target="8F-MAiMv_yFmY44MnB7F-22">
          <mxGeometry relative="1" as="geometry" />
        </mxCell>
        <mxCell id="8F-MAiMv_yFmY44MnB7F-20" value="Upscale XBR BLEND" style="rhombus;whiteSpace=wrap;html=1;rounded=0;" vertex="1" parent="1">
          <mxGeometry x="280" y="1160" width="120" height="130" as="geometry" />
        </mxCell>
        <mxCell id="8F-MAiMv_yFmY44MnB7F-30" style="edgeStyle=orthogonalEdgeStyle;rounded=0;orthogonalLoop=1;jettySize=auto;html=1;" edge="1" parent="1" source="8F-MAiMv_yFmY44MnB7F-22" target="8F-MAiMv_yFmY44MnB7F-29">
          <mxGeometry relative="1" as="geometry" />
        </mxCell>
        <mxCell id="8F-MAiMv_yFmY44MnB7F-22" value="BAND+BLEND w/padding 2x" style="whiteSpace=wrap;html=1;rounded=0;" vertex="1" parent="1">
          <mxGeometry x="280" y="1345" width="120" height="60" as="geometry" />
        </mxCell>
        <mxCell id="8F-MAiMv_yFmY44MnB7F-26" style="edgeStyle=orthogonalEdgeStyle;rounded=0;orthogonalLoop=1;jettySize=auto;html=1;entryX=0.5;entryY=0;entryDx=0;entryDy=0;" edge="1" parent="1" source="8F-MAiMv_yFmY44MnB7F-24" target="8F-MAiMv_yFmY44MnB7F-20">
          <mxGeometry relative="1" as="geometry" />
        </mxCell>
        <mxCell id="8F-MAiMv_yFmY44MnB7F-24" value="BAND+BLEND w/padding" style="rounded=0;whiteSpace=wrap;html=1;" vertex="1" parent="1">
          <mxGeometry x="280" y="1060" width="120" height="60" as="geometry" />
        </mxCell>
        <mxCell id="8F-MAiMv_yFmY44MnB7F-31" style="edgeStyle=orthogonalEdgeStyle;rounded=0;orthogonalLoop=1;jettySize=auto;html=1;" edge="1" parent="1" source="8F-MAiMv_yFmY44MnB7F-27" target="8F-MAiMv_yFmY44MnB7F-29">
          <mxGeometry relative="1" as="geometry" />
        </mxCell>
        <mxCell id="8F-MAiMv_yFmY44MnB7F-39" style="edgeStyle=orthogonalEdgeStyle;rounded=0;orthogonalLoop=1;jettySize=auto;html=1;entryX=0.5;entryY=0;entryDx=0;entryDy=0;" edge="1" parent="1" source="8F-MAiMv_yFmY44MnB7F-27" target="8F-MAiMv_yFmY44MnB7F-40">
          <mxGeometry relative="1" as="geometry">
            <mxPoint x="720" y="2090" as="targetPoint" />
          </mxGeometry>
        </mxCell>
        <mxCell id="8F-MAiMv_yFmY44MnB7F-27" value="BAND 2x" style="whiteSpace=wrap;html=1;rounded=0;" vertex="1" parent="1">
          <mxGeometry x="530" y="1080" width="120" height="60" as="geometry" />
        </mxCell>
        <mxCell id="8F-MAiMv_yFmY44MnB7F-34" value="" style="edgeStyle=orthogonalEdgeStyle;rounded=0;orthogonalLoop=1;jettySize=auto;html=1;" edge="1" parent="1" source="8F-MAiMv_yFmY44MnB7F-29" target="8F-MAiMv_yFmY44MnB7F-33">
          <mxGeometry relative="1" as="geometry" />
        </mxCell>
        <mxCell id="8F-MAiMv_yFmY44MnB7F-29" value="REPLACE BAND+BLEND w/padding 2x&#39;s alpha with BAND 2x." style="rhombus;whiteSpace=wrap;html=1;" vertex="1" parent="1">
          <mxGeometry x="425" y="1510" width="150" height="160" as="geometry" />
        </mxCell>
        <mxCell id="8F-MAiMv_yFmY44MnB7F-36" value="" style="edgeStyle=orthogonalEdgeStyle;rounded=0;orthogonalLoop=1;jettySize=auto;html=1;" edge="1" parent="1" source="8F-MAiMv_yFmY44MnB7F-33" target="8F-MAiMv_yFmY44MnB7F-35">
          <mxGeometry relative="1" as="geometry" />
        </mxCell>
        <mxCell id="8F-MAiMv_yFmY44MnB7F-33" value="FINAL&lt;br&gt;BAND+BLEND 2x images" style="whiteSpace=wrap;html=1;" vertex="1" parent="1">
          <mxGeometry x="440" y="1800" width="120" height="60" as="geometry" />
        </mxCell>
        <mxCell id="8F-MAiMv_yFmY44MnB7F-38" value="" style="edgeStyle=orthogonalEdgeStyle;rounded=0;orthogonalLoop=1;jettySize=auto;html=1;" edge="1" parent="1" source="8F-MAiMv_yFmY44MnB7F-35" target="8F-MAiMv_yFmY44MnB7F-37">
          <mxGeometry relative="1" as="geometry" />
        </mxCell>
        <mxCell id="8F-MAiMv_yFmY44MnB7F-35" value="RESTACK up to 8 images" style="rhombus;whiteSpace=wrap;html=1;" vertex="1" parent="1">
          <mxGeometry x="460" y="1930" width="80" height="80" as="geometry" />
        </mxCell>
        <mxCell id="8F-MAiMv_yFmY44MnB7F-42" value="" style="edgeStyle=orthogonalEdgeStyle;rounded=0;orthogonalLoop=1;jettySize=auto;html=1;" edge="1" parent="1" source="8F-MAiMv_yFmY44MnB7F-37" target="8F-MAiMv_yFmY44MnB7F-41">
          <mxGeometry relative="1" as="geometry">
            <Array as="points">
              <mxPoint x="620" y="2130" />
            </Array>
          </mxGeometry>
        </mxCell>
        <mxCell id="8F-MAiMv_yFmY44MnB7F-37" value="FINAL BLEND IMAGE&amp;nbsp;" style="whiteSpace=wrap;html=1;" vertex="1" parent="1">
          <mxGeometry x="440" y="2100" width="120" height="60" as="geometry" />
        </mxCell>
        <mxCell id="8F-MAiMv_yFmY44MnB7F-44" style="edgeStyle=orthogonalEdgeStyle;rounded=0;orthogonalLoop=1;jettySize=auto;html=1;entryX=0.5;entryY=0;entryDx=0;entryDy=0;" edge="1" parent="1" source="8F-MAiMv_yFmY44MnB7F-40" target="8F-MAiMv_yFmY44MnB7F-41">
          <mxGeometry relative="1" as="geometry">
            <Array as="points">
              <mxPoint x="620" y="2130" />
            </Array>
          </mxGeometry>
        </mxCell>
        <mxCell id="8F-MAiMv_yFmY44MnB7F-40" value="FINAL BAND IMAGE" style="rounded=0;whiteSpace=wrap;html=1;" vertex="1" parent="1">
          <mxGeometry x="660" y="2100" width="120" height="60" as="geometry" />
        </mxCell>
        <mxCell id="8F-MAiMv_yFmY44MnB7F-46" value="" style="edgeStyle=orthogonalEdgeStyle;rounded=0;orthogonalLoop=1;jettySize=auto;html=1;" edge="1" parent="1" source="8F-MAiMv_yFmY44MnB7F-41" target="8F-MAiMv_yFmY44MnB7F-45">
          <mxGeometry relative="1" as="geometry" />
        </mxCell>
        <mxCell id="8F-MAiMv_yFmY44MnB7F-41" value="BLEND TO G&lt;br&gt;BAND TO R" style="rhombus;whiteSpace=wrap;html=1;" vertex="1" parent="1">
          <mxGeometry x="557.5" y="2230" width="125" height="120" as="geometry" />
        </mxCell>
        <mxCell id="8F-MAiMv_yFmY44MnB7F-45" value="Upscaled ID" style="rounded=0;whiteSpace=wrap;html=1;" vertex="1" parent="1">
          <mxGeometry x="560" y="2370" width="120" height="60" as="geometry" />
        </mxCell>
      </root>
    </mxGraphModel>
  </diagram>
</mxfile>
